# xmcd
#
# Track frame offsets: 
#        150
#        19597
#        36632
#        52745
#        66707
#        85107
#        102247
#        121430
#        143305
#        162645
#        180330
#
# Disc length: 2718 seconds
#
# Revision: 10
# Processed by: cddbd v1.5.2PL0 Copyright (c) Steve Scherf et al.
# Submitted via: ExactAudioCopy v0.95b4
#
DISCID=880a9d0b,8f0a9c0b
DTITLE=Vince Gill - When Love Finds You
DYEAR=1994
DGENRE=Country
TTITLE0=Whenever You Come Around
TTITLE1=You Better Think Twice
TTITLE2=Real Lady's Man
TTITLE3=What The Cowgirls Do
TTITLE4=When Love Finds You
TTITLE5=If There's Anything I Can Do
TTITLE6=South Side Of Dixie
TTITLE7=Maybe Tonight
TTITLE8=Which Bridge To Cross (Which Bridge To Burn)
TTITLE9=If I Had My Way
TTITLE10=Go Rest High On That Mountain
EXTD=
EXTT0=
EXTT1=
EXTT2=
EXTT3=
EXTT4=
EXTT5=
EXTT6=
EXTT7=
EXTT8=
EXTT9=
EXTT10=
PLAYORDER=
